<?xml version="1.0" standalone="no"?>
<!DOCTYPE svg PUBLIC "-//W3C//DTD SVG 20010904//EN"
 "http://www.w3.org/TR/2001/REC-SVG-20010904/DTD/svg10.dtd">
<svg version="1.0" xmlns="http://www.w3.org/2000/svg"
 width="360.000000pt" height="360.000000pt" viewBox="0 0 360.000000 360.000000"
 preserveAspectRatio="xMidYMid meet">
<metadata>
Created by potrace 1.14, written by Peter Selinger 2001-2017
</metadata>
<g transform="translate(0.000000,360.000000) scale(0.100000,-0.100000)"
fill="#000000" stroke="none">
<path d="M1704 3566 c6 -17 5 -17 -11 -5 -11 9 -14 10 -9 2 4 -7 2 -13 -3 -13
-6 0 -11 5 -11 11 0 5 -5 7 -10 4 -6 -4 -8 -10 -6 -14 3 -4 -12 -6 -32 -4 -20
1 -39 -3 -44 -10 -6 -9 -8 -9 -8 2 0 11 -3 11 -15 1 -8 -6 -19 -9 -25 -5 -5 3
-10 2 -10 -4 0 -5 -8 -8 -19 -6 -15 3 -18 -2 -16 -26 1 -17 0 -27 -4 -24 -3 4
-6 11 -6 16 0 14 -7 14 -43 1 -19 -6 -31 -16 -28 -21 4 -5 1 -13 -5 -17 -8 -4
-9 -3 -5 4 4 7 1 12 -9 12 -10 0 -13 -5 -9 -12 5 -8 2 -9 -11 -5 -14 6 -16 3
-12 -15 5 -19 4 -20 -5 -7 -10 15 -14 13 -36 -12 -14 -18 -33 -29 -49 -29 -18
0 -24 -4 -20 -15 4 -8 1 -17 -5 -21 -7 -4 -8 -3 -4 4 4 7 1 12 -7 12 -21 0
-28 -12 -15 -27 9 -11 8 -13 -3 -11 -8 2 -17 10 -22 18 -4 9 -6 5 -4 -12 2
-15 1 -25 -4 -23 -4 3 -11 1 -14 -5 -5 -8 -12 -7 -23 2 -13 11 -15 10 -9 -4 4
-12 2 -18 -8 -18 -7 0 -17 -5 -21 -12 -5 -7 -3 -8 6 -3 9 5 11 4 6 -4 -6 -9
-11 -9 -21 -1 -11 10 -13 8 -10 -9 3 -18 1 -20 -15 -11 -16 8 -18 8 -14 -5 4
-8 1 -15 -6 -15 -6 0 -8 -5 -4 -11 4 -8 -1 -9 -17 -4 -17 4 -20 3 -10 -3 11
-8 10 -12 -6 -21 -11 -5 -22 -9 -24 -6 -2 2 -9 -7 -16 -21 -7 -16 -7 -22 -1
-17 7 4 8 1 4 -6 -5 -7 -15 -10 -23 -7 -11 4 -13 2 -9 -9 3 -9 0 -15 -9 -15
-7 0 -17 -5 -21 -12 -5 -7 -3 -8 7 -3 12 8 12 6 0 -8 -7 -9 -17 -15 -21 -12
-5 3 -11 1 -14 -4 -4 -5 -2 -12 4 -16 16 -10 1 -25 -17 -18 -12 5 -14 3 -8 -7
6 -10 4 -12 -10 -6 -15 5 -16 4 -5 -9 7 -9 9 -15 4 -14 -21 4 -28 -2 -14 -11
12 -8 10 -10 -9 -10 -17 0 -22 -4 -17 -16 3 -8 2 -13 -2 -11 -4 2 -15 -4 -24
-14 -12 -12 -13 -19 -5 -23 7 -2 4 -5 -5 -5 -11 -1 -16 -8 -13 -21 2 -11 0
-18 -6 -15 -5 4 -9 1 -9 -5 0 -6 -5 -8 -12 -4 -8 5 -9 2 -5 -10 4 -10 1 -19
-8 -22 -8 -4 -12 -11 -8 -17 4 -7 0 -8 -12 -3 -14 5 -16 4 -6 -8 9 -11 8 -15
-3 -19 -9 -4 -13 -15 -11 -27 2 -11 0 -18 -4 -15 -5 3 -12 -2 -15 -11 -3 -9
-11 -12 -18 -8 -10 6 -10 4 0 -8 10 -13 10 -17 -4 -22 -9 -4 -14 -9 -11 -12 3
-3 -3 -14 -14 -25 -11 -11 -16 -25 -12 -35 5 -13 1 -15 -18 -10 -13 3 -18 3
-11 0 6 -3 12 -12 12 -20 0 -9 -4 -12 -10 -9 -5 3 -10 -3 -10 -15 0 -14 -4
-19 -12 -14 -8 5 -9 2 -5 -10 6 -14 3 -17 -9 -12 -14 5 -15 4 -4 -9 10 -12 10
-15 -3 -15 -11 0 -13 -6 -9 -22 3 -13 1 -19 -6 -15 -6 4 -16 -6 -23 -22 -7
-16 -16 -28 -20 -25 -4 2 -5 -6 -1 -18 3 -14 2 -19 -6 -14 -17 10 -15 0 4 -19
16 -15 16 -16 -1 -13 -10 2 -20 -3 -23 -11 -3 -9 0 -11 9 -7 8 4 5 0 -6 -9
-17 -14 -18 -17 -5 -26 12 -9 10 -10 -8 -6 -12 3 -20 2 -18 -2 3 -4 1 -13 -4
-21 -5 -9 -5 -19 2 -27 8 -11 7 -12 -8 -7 -18 7 -18 6 1 -17 14 -17 15 -20 3
-10 -16 12 -17 10 -13 -19 2 -18 1 -29 -3 -25 -7 6 -8 11 -11 37 -2 16 -11 4
-16 -21 -2 -12 0 -19 4 -16 5 3 12 -2 15 -11 4 -12 2 -15 -9 -10 -8 3 -15 1
-15 -4 0 -6 4 -10 8 -10 5 0 9 -7 9 -15 0 -12 -3 -12 -15 -2 -13 10 -14 8 -8
-11 5 -13 3 -22 -3 -22 -6 0 -11 -5 -11 -11 0 -6 8 -8 18 -5 14 5 14 4 -2 -9
-11 -8 -23 -15 -26 -15 -3 0 -6 -10 -7 -21 -2 -17 1 -19 10 -10 6 6 15 11 20
11 5 0 1 -7 -8 -16 -9 -9 -14 -23 -11 -30 7 -17 -10 -28 -20 -13 -5 8 -3 9 6
4 9 -5 11 -4 6 4 -16 25 -24 -1 -10 -34 10 -25 11 -36 2 -41 -7 -5 -8 -2 -3 7
5 10 5 11 -3 4 -5 -5 -11 -28 -12 -50 -4 -55 -2 -67 10 -60 6 3 10 1 10 -4 0
-14 -13 -14 -26 -1 -6 6 -10 3 -10 -9 0 -11 4 -17 8 -15 11 7 10 -8 -1 -25 -6
-9 -6 -22 1 -34 8 -15 7 -18 -3 -12 -9 6 -11 3 -6 -8 3 -9 2 -19 -4 -22 -5 -4
-6 -11 -2 -17 8 -14 8 -71 0 -84 -3 -6 1 -23 8 -38 13 -25 13 -27 -1 -22 -8 3
-13 2 -9 -3 3 -5 2 -11 -2 -14 -5 -2 -1 -2 7 0 10 2 8 -3 -5 -13 -20 -16 -20
-16 3 -11 18 4 21 3 12 -8 -6 -7 -8 -20 -4 -29 5 -12 2 -15 -10 -10 -9 3 -16
1 -16 -5 0 -6 7 -11 15 -11 8 0 15 -5 15 -11 0 -5 -4 -8 -9 -5 -5 3 -11 -1
-14 -9 -4 -10 -1 -12 11 -8 9 3 14 3 10 -2 -4 -4 -3 -16 2 -25 7 -13 6 -20 -5
-24 -8 -3 -17 -1 -20 4 -4 6 -1 10 4 10 6 0 11 5 11 11 0 8 -4 8 -14 0 -15
-13 -14 -39 3 -68 14 -24 14 -8 0 20 -10 21 -10 21 6 2 18 -22 15 -41 -7 -39
-8 1 -15 -4 -15 -11 0 -6 10 -11 22 -10 14 2 21 -3 22 -16 1 -10 -2 -19 -8
-19 -5 0 -8 3 -7 8 2 4 -1 8 -7 10 -5 2 -11 -1 -13 -7 -2 -6 1 -11 7 -11 6 0
11 -7 11 -16 0 -9 -5 -12 -13 -8 -6 4 -8 3 -4 -1 10 -11 37 -15 37 -6 0 4 7 8
16 8 15 0 14 -2 -1 -13 -10 -8 -21 -11 -26 -9 -4 3 -10 1 -14 -5 -3 -5 1 -10
10 -10 9 0 13 -5 10 -11 -4 -6 -14 -8 -22 -5 -8 4 -11 1 -8 -5 4 -6 14 -8 22
-5 9 4 13 1 10 -6 -2 -7 -11 -12 -18 -10 -11 3 -11 1 -2 -9 10 -10 16 -9 30 2
16 13 16 13 0 -10 -15 -23 -15 -26 0 -43 18 -20 4 -25 -16 -5 -11 10 -11 8 -1
-9 13 -22 65 -32 53 -10 -3 6 -2 7 2 3 14 -12 15 -37 2 -34 -7 1 -14 5 -17 9
-3 4 -12 3 -20 -2 -11 -7 -12 -10 -2 -10 7 0 11 -4 7 -9 -3 -6 3 -8 13 -6 11
2 19 -3 19 -11 0 -9 -6 -13 -16 -9 -9 3 -5 -4 9 -15 14 -11 21 -20 15 -20 -5
0 -4 -4 4 -9 11 -7 9 -10 -9 -16 -22 -7 -22 -7 -1 -21 11 -8 18 -21 15 -29 -4
-8 -1 -15 6 -15 6 0 9 4 5 9 -3 6 4 9 15 8 24 -2 24 -1 4 -22 -21 -21 -7 -37
35 -39 17 0 31 -5 31 -9 0 -5 -7 -7 -15 -3 -8 3 -15 1 -15 -4 0 -5 -6 -8 -13
-6 -6 1 -9 1 -4 -1 4 -3 5 -8 2 -13 -2 -4 6 -19 18 -32 13 -14 22 -30 21 -37
-1 -6 0 -7 3 -1 2 5 12 10 20 10 13 0 13 -2 2 -17 -11 -13 -11 -17 -1 -20 6
-3 10 -9 7 -14 -4 -5 2 -6 11 -2 16 6 15 7 -2 20 -10 7 -13 13 -7 13 20 0 33
-25 20 -40 -10 -10 -8 -12 7 -6 14 5 17 3 12 -10 -6 -15 -4 -15 19 0 29 19 32
15 8 -10 -16 -15 -16 -17 0 -29 9 -6 14 -14 12 -17 -3 -3 9 -13 27 -21 18 -9
29 -17 23 -17 -5 0 2 -8 18 -18 15 -10 24 -22 20 -25 -3 -4 4 -7 17 -7 22 0
22 1 6 19 -14 15 -15 21 -4 27 7 4 10 4 6 -1 -12 -13 12 -34 30 -28 10 3 7 -2
-6 -12 -18 -13 -21 -20 -11 -31 6 -7 16 -11 23 -7 17 11 35 12 41 3 3 -5 -4
-7 -15 -5 -26 5 -25 3 7 -24 18 -17 24 -19 20 -7 -4 9 -2 16 3 16 6 0 10 -5
10 -11 0 -15 26 -39 34 -32 3 4 6 2 6 -4 0 -12 58 -42 92 -48 12 -3 25 -10 28
-16 4 -6 10 -10 14 -10 17 2 20 0 8 -8 -11 -7 -10 -9 3 -14 9 -4 13 -3 10 3
-3 6 1 10 9 10 9 0 13 -6 10 -14 -4 -10 2 -14 24 -12 21 1 28 -2 25 -11 -3 -7
3 -16 13 -20 11 -4 25 -13 33 -21 7 -7 20 -11 28 -8 8 3 12 2 9 -3 -3 -5 1
-12 10 -15 8 -3 13 -10 10 -15 -3 -5 3 -7 14 -4 12 3 29 -2 40 -12 11 -10 23
-15 27 -12 3 4 12 -1 20 -11 13 -16 14 -15 8 5 -3 12 -1 24 4 28 7 3 8 0 5 -9
-3 -9 -1 -16 5 -16 6 0 10 -5 8 -12 -1 -7 4 -13 11 -14 6 -1 13 -2 15 -4 1 -1
15 -4 30 -6 22 -4 27 -2 21 8 -5 8 -1 8 11 -2 10 -8 34 -16 54 -18 57 -3 61
-5 62 -16 0 -6 4 -2 9 9 7 17 9 17 9 3 1 -21 12 -23 30 -5 8 6 11 7 8 1 -4 -7
10 -12 41 -13 96 -4 112 -6 112 -13 0 -5 9 -8 19 -8 11 0 23 -5 26 -10 5 -8
11 -7 21 1 10 8 14 8 14 0 0 -13 22 -10 32 4 5 6 8 5 8 -4 0 -7 6 -11 15 -7 8
3 15 1 15 -4 0 -6 5 -10 11 -10 5 0 7 5 3 11 -4 8 -1 8 12 2 11 -5 32 -8 47
-7 15 0 30 -3 33 -8 3 -4 15 -3 26 3 16 9 23 8 29 -2 7 -11 9 -11 9 1 0 11 2
12 8 3 5 -7 13 -9 21 -3 8 4 21 6 29 2 11 -4 13 -1 7 9 -6 11 -5 12 6 2 16
-16 33 -17 23 -2 -5 8 -2 9 11 2 22 -13 57 -5 48 11 -5 7 -2 7 8 -1 15 -12 35
-13 54 -2 6 4 19 5 30 3 10 -1 25 2 32 8 9 7 17 7 28 -2 13 -11 14 -10 9 5 -6
15 -3 17 14 13 16 -5 22 -2 22 10 0 14 2 15 9 3 8 -12 12 -12 25 -2 10 9 16
10 16 3 0 -6 7 -9 15 -6 8 4 15 14 15 23 0 9 3 12 8 6 10 -14 32 -17 32 -4 0
5 5 7 10 4 6 -3 10 -1 10 5 0 6 4 9 9 6 5 -4 12 0 14 6 4 10 6 10 6 1 1 -18
31 -4 31 15 0 13 2 13 13 -3 10 -13 16 -15 21 -6 4 6 12 8 18 5 7 -5 8 -2 3 6
-6 10 -4 12 8 7 11 -4 17 -1 17 8 0 8 8 15 18 15 15 0 15 -2 2 -11 -13 -9 -13
-10 0 -6 8 2 14 11 14 20 -1 9 3 14 8 11 5 -3 19 2 31 13 19 15 20 16 8 0 -8
-10 -9 -17 -3 -17 6 0 14 5 17 10 4 6 11 7 17 4 8 -5 9 -1 4 11 -5 15 -4 16 8
6 10 -8 16 -9 21 -1 3 5 -1 13 -10 16 -13 5 -13 9 -3 22 10 12 10 14 1 8 -7
-4 -13 -2 -13 3 0 11 15 15 34 12 5 -1 3 6 -5 15 -13 16 -12 16 7 6 22 -12 34
-7 34 12 0 6 -4 5 -9 -2 -7 -11 -9 -11 -14 1 -6 16 9 17 31 4 11 -8 16 -2 13
16 0 4 4 7 10 7 5 0 7 5 4 10 -3 6 -1 10 4 10 6 0 11 -5 11 -11 0 -5 5 -7 10
-4 6 4 8 11 5 16 -4 5 -1 9 5 9 6 0 8 5 5 10 -4 6 -1 9 6 8 7 -2 13 2 14 9 0
6 4 15 9 20 5 4 6 3 2 -4 -11 -19 11 -24 25 -6 10 12 10 14 2 9 -8 -4 -13 -2
-13 5 0 6 8 9 20 6 11 -3 23 0 27 5 3 7 1 8 -5 4 -7 -4 -12 -1 -12 9 0 11 5
15 15 12 8 -4 17 -1 21 5 5 7 2 8 -6 3 -9 -5 -11 -4 -6 3 4 7 14 12 23 12 11
0 13 4 6 13 -6 8 -1 20 16 37 l25 25 -17 -27 c-10 -16 -14 -28 -9 -28 13 0 33
50 25 63 -4 7 2 5 12 -3 17 -14 18 -14 6 8 -6 12 -9 23 -6 23 3 1 10 3 15 4 6
1 15 3 21 4 5 0 7 6 4 11 -4 6 -11 7 -17 4 -7 -4 -8 -2 -4 4 4 6 13 9 21 6 10
-4 13 2 11 20 -2 14 0 23 4 21 14 -9 28 20 25 48 -3 23 0 27 13 22 9 -3 13 -3
9 1 -4 4 -1 14 5 22 15 17 20 44 7 36 -5 -3 -6 -10 -3 -16 5 -7 2 -8 -5 -3 -9
5 -6 14 11 33 13 14 16 21 8 17 -12 -7 -13 -6 -3 7 7 8 10 18 6 21 -3 4 -1 7
5 7 7 0 11 3 10 8 -2 10 12 64 22 83 4 9 3 24 -3 35 -9 16 -8 17 4 7 12 -10
14 -5 14 32 -1 25 3 41 9 38 5 -4 7 1 3 10 -4 10 -1 17 6 18 7 0 3 4 -8 9 -19
8 -19 9 -1 9 16 1 17 3 5 18 -8 9 -9 14 -3 10 7 -4 14 0 17 7 3 8 1 17 -6 20
-8 3 -9 7 -1 13 6 4 10 31 10 60 -1 28 2 49 7 46 10 -6 9 5 -3 27 -7 13 -7 21
2 26 6 4 8 3 4 -4 -3 -6 -2 -13 3 -16 14 -9 7 19 -9 40 -8 10 -10 15 -4 11 7
-4 15 0 18 9 3 8 2 12 -4 9 -6 -3 -10 -1 -10 4 0 6 5 11 12 11 6 0 3 7 -8 15
-19 15 -19 15 1 8 16 -5 18 -4 10 8 -6 8 -10 39 -9 69 1 31 -4 58 -10 62 -8 5
-7 8 2 8 7 0 10 5 7 10 -4 6 -1 17 5 25 7 8 8 15 3 15 -5 0 -9 13 -8 30 0 16
3 30 7 30 5 0 8 5 8 11 0 5 -3 8 -8 5 -4 -2 -8 11 -8 30 0 19 2 34 6 34 3 0 6
27 6 60 1 40 -3 57 -10 53 -8 -5 -8 -3 0 8 12 16 13 58 1 76 -6 9 -3 11 9 6
14 -5 15 -3 5 15 -7 12 -8 22 -3 22 10 0 9 30 -2 48 -4 6 -3 12 2 12 5 0 6 20
2 45 -4 25 -3 45 2 45 5 0 4 10 -3 21 -8 15 -8 19 0 15 6 -4 11 -3 11 3 0 5
-5 11 -11 13 -8 3 -6 10 5 21 16 16 16 17 -6 18 -13 0 -17 3 -10 6 6 2 10 9 6
14 -3 5 0 9 7 9 7 0 6 8 -4 24 -9 13 -13 27 -9 30 11 12 13 54 2 61 -5 3 -10
22 -10 41 0 19 -4 34 -9 34 -5 0 -7 10 -3 22 4 17 2 20 -11 15 -14 -5 -15 -3
-5 13 7 10 17 16 23 14 5 -3 1 3 -10 13 -11 10 -21 27 -23 38 -4 33 -7 39 -24
64 -10 13 -15 28 -12 33 3 4 0 8 -6 8 -6 0 -9 4 -5 10 3 5 0 18 -7 29 -10 16
-15 18 -27 8 -12 -10 -13 -9 -7 1 4 7 2 19 -4 27 -9 11 -9 19 -2 28 8 10 5 20
-13 39 -13 14 -21 28 -19 31 3 3 -4 8 -16 12 -15 5 -20 13 -17 26 3 10 1 17
-4 13 -5 -3 -10 0 -10 5 -1 6 -2 16 -3 21 0 6 -6 14 -11 18 -6 4 -23 22 -38
40 -16 21 -27 28 -27 18 0 -8 8 -20 18 -26 11 -8 12 -10 2 -7 -8 2 -20 13 -26
25 -6 12 -13 19 -16 16 -3 -2 -8 7 -12 21 -4 16 -13 25 -26 25 -11 0 -19 3
-19 8 3 19 -2 25 -11 12 -8 -13 -10 -13 -10 2 0 10 -10 23 -22 29 -13 7 -29
20 -36 30 -7 10 -21 16 -32 14 -14 -3 -17 1 -13 12 5 12 2 15 -10 10 -11 -4
-17 -1 -17 8 0 8 -3 14 -7 14 -20 -3 -34 2 -28 11 3 6 -1 10 -10 10 -9 0 -14
4 -11 9 3 5 -1 12 -10 15 -8 3 -12 2 -9 -4 3 -6 -1 -7 -9 -4 -9 3 -13 10 -10
15 3 5 -2 9 -10 9 -9 0 -16 7 -16 16 0 13 -3 14 -13 5 -18 -14 -30 -2 -15 16
9 11 7 12 -7 7 -11 -5 -16 -3 -12 2 3 6 -7 9 -23 8 -26 -2 -28 0 -19 17 6 13
6 19 -1 19 -5 0 -10 -4 -10 -10 0 -5 -4 -10 -10 -10 -5 0 -7 7 -4 15 4 10 2
13 -8 10 -8 -3 -21 1 -28 10 -7 8 -23 15 -37 15 -14 0 -21 4 -18 10 3 6 -1 10
-9 10 -9 0 -16 6 -16 13 0 8 -4 7 -10 -3 -5 -8 -10 -10 -10 -5 0 6 -9 16 -21
23 -12 8 -18 9 -14 3 3 -6 1 -11 -4 -11 -6 0 -11 5 -11 10 0 6 -9 10 -20 10
-11 0 -20 6 -20 13 0 8 -4 7 -10 -3 -8 -12 -10 -12 -11 5 l0 20 -9 -20 c-5
-11 -9 -14 -9 -6 -1 8 -8 11 -22 8 -16 -4 -18 -3 -8 9 13 16 -2 19 -17 4 -7
-7 -20 -3 -40 12 -16 12 -24 16 -17 8 10 -13 5 -14 -35 -11 -26 2 -53 8 -60
14 -10 8 -16 7 -23 -4 -7 -12 -9 -12 -10 1 -1 8 -1 19 0 23 1 5 -4 5 -11 1
-19 -12 -38 -13 -38 -3 0 6 -4 7 -10 4 -5 -3 -10 0 -10 7 0 8 -9 14 -20 15
-11 1 -20 -3 -20 -8 0 -6 4 -8 9 -4 5 3 12 1 15 -4 4 -5 -2 -8 -11 -7 -9 2
-19 8 -21 14 -2 7 -8 12 -13 12 -6 0 -7 -4 -4 -10 3 -6 -1 -7 -9 -4 -9 3 -14
10 -11 14 3 4 -2 11 -11 14 -8 3 -12 2 -9 -4 10 -17 -7 -11 -22 8 -8 9 -12 12
-9 5 4 -6 2 -14 -4 -18 -5 -3 -10 1 -10 9 0 8 -4 18 -10 21 -5 3 -7 0 -4 -8 3
-8 0 -18 -6 -22 -6 -3 -9 -1 -8 6 2 6 -10 14 -27 16 -16 2 -36 10 -44 16 -11
9 -13 9 -8 0 12 -19 -11 -25 -23 -6 -11 17 -11 17 -6 -1z m71 -18 c5 4 5 1 1
-6 -6 -10 -11 -10 -22 -1 -8 6 -14 14 -14 16 0 3 6 0 13 -6 8 -6 18 -7 22 -3z
m-245 -53 c0 -12 -19 -12 -23 0 -4 9 -1 12 9 8 7 -3 14 -7 14 -8z m-525 -334
c3 -5 2 -12 -3 -15 -5 -3 -9 1 -9 9 0 17 3 19 12 6z m2051 -208 c-3 -4 3 -12
15 -18 19 -11 19 -13 5 -18 -10 -4 -14 -3 -11 2 3 5 -4 13 -16 16 -17 6 -19 9
-8 16 17 11 25 12 15 2z m31 -75 c-3 -8 -6 -5 -6 6 -1 11 2 17 5 13 3 -3 4
-12 1 -19z m60 -80 c-3 -8 -6 -5 -6 6 -1 11 2 17 5 13 3 -3 4 -12 1 -19z m67
-136 c3 -5 -1 -9 -9 -9 -8 0 -12 4 -9 9 3 4 7 8 9 8 2 0 6 -4 9 -8z m40 -80
c3 -5 -1 -9 -9 -9 -8 0 -12 4 -9 9 3 4 7 8 9 8 2 0 6 -4 9 -8z m31 -61 c-9 -8
-36 -10 -30 -2 2 4 11 8 20 8 8 0 13 -3 10 -6z m-2775 -115 c0 -3 -4 -8 -10
-11 -5 -3 -10 -1 -10 4 0 6 5 11 10 11 6 0 10 -2 10 -4z m2810 -40 c0 -3 -4
-8 -10 -11 -5 -3 -10 -1 -10 4 0 6 5 11 10 11 6 0 10 -2 10 -4z m-2959 -1293
c12 -16 12 -17 -2 -6 -9 7 -20 9 -24 5 -5 -4 -5 -1 -1 6 9 16 11 15 27 -5z
m49 -67 c0 -3 -4 -8 -10 -11 -5 -3 -10 -1 -10 4 0 6 5 11 10 11 6 0 10 -2 10
-4z m31 -59 c-10 -9 -11 -8 -5 6 3 10 9 15 12 12 3 -3 0 -11 -7 -18z m-36 4
c3 -5 2 -12 -3 -15 -5 -3 -9 1 -9 9 0 17 3 19 12 6z m-12 -69 c4 9 6 9 6 1 2
-20 -16 -24 -30 -5 -13 15 -12 16 3 4 13 -10 17 -10 21 0z m51 -70 c2 -4 -7
-8 -22 -9 -24 -2 -24 -1 -7 7 11 5 21 9 22 9 1 1 4 -3 7 -7z m36 -73 c11 -8 9
-9 -10 -3 -22 6 -23 5 -11 -10 7 -9 9 -16 5 -16 -5 0 -15 9 -22 20 -10 17 -10
20 5 20 10 0 25 -5 33 -11z m130 -193 c0 -6 -7 2 -15 18 -8 15 -15 33 -15 40
0 6 7 -2 15 -18 8 -15 15 -33 15 -40z m113 -91 c-3 -9 -8 -14 -10 -11 -3 3 -2
9 2 15 9 16 15 13 8 -4z m117 -55 c0 -5 -5 -10 -11 -10 -5 0 -7 5 -4 10 3 6 8
10 11 10 2 0 4 -4 4 -10z m21 -37 c13 -16 12 -17 -3 -4 -10 7 -18 15 -18 17 0
8 8 3 21 -13z m226 -106 c0 -8 -6 -14 -14 -14 -9 0 -10 4 -2 14 6 7 12 13 14
13 1 0 2 -6 2 -13z m1673 -12 c0 -8 -4 -15 -10 -15 -5 0 -7 7 -4 15 4 8 8 15
10 15 2 0 4 -7 4 -15z m-1590 -39 c0 -3 -4 -8 -10 -11 -5 -3 -10 -1 -10 4 0 6
5 11 10 11 6 0 10 -2 10 -4z m1431 -69 c-10 -9 -11 -8 -5 6 3 10 9 15 12 12 3
-3 0 -11 -7 -18z m-1257 -15 c3 -5 -1 -9 -9 -9 -8 0 -12 4 -9 9 3 4 7 8 9 8 2
0 6 -4 9 -8z"/>
<path d="M1287 3417 c4 -7 -1 -8 -13 -3 -15 6 -17 5 -6 -5 10 -11 15 -10 28 2
13 14 13 16 0 16 -8 0 -12 -5 -9 -10z"/>
<path d="M3180 2762 c0 -12 19 -26 26 -19 2 2 -2 10 -11 17 -9 8 -15 8 -15 2z"/>
<path d="M3320 2306 c0 -2 7 -7 16 -10 8 -3 12 -2 9 4 -6 10 -25 14 -25 6z"/>
<path d="M340 921 c0 -6 4 -12 8 -15 5 -3 9 1 9 9 0 8 -4 15 -9 15 -4 0 -8 -4
-8 -9z"/>
<path d="M2807 229 c7 -7 15 -10 18 -7 3 3 -2 9 -12 12 -14 6 -15 5 -6 -5z"/>
</g>
</svg>
