<svg xmlns="http://www.w3.org/2000/svg" width="60" height="60" viewBox="0 0 60 60" fill="none"><path fill-rule="evenodd" d="M2 30c0 15.464 12.536 28 28 28s28-12.536 28-28S45.464 2 30 2 2 14.536 2 30ZM30 0C13.431 0 0 13.431 0 30c0 16.569 13.431 30 30 30 16.569 0 30-13.431 30-30C60 13.431 46.569 0 30 0Z" clip-rule="evenodd"/><path fill-rule="evenodd" d="M31.818 30 40 21.818 38.182 20 30 28.182 21.818 20 20 21.818 28.182 30 20 38.182 21.82 40 30 31.818 38.182 40 40 38.182 31.818 30Z" clip-rule="evenodd"/></svg>
