<?xml version="1.0" encoding="UTF-8" standalone="no"?>
<!DOCTYPE svg PUBLIC "-//W3C//DTD SVG 1.1//EN" "http://www.w3.org/Graphics/SVG/1.1/DTD/svg11.dtd">
<svg width="100%" height="100%" viewBox="0 0 473 473" version="1.1" xmlns="http://www.w3.org/2000/svg" xmlns:xlink="http://www.w3.org/1999/xlink" xml:space="preserve" xmlns:serif="http://www.serif.com/" style="fill-rule:evenodd;clip-rule:evenodd;stroke-linejoin:round;stroke-miterlimit:2;">
    <g transform="matrix(4.16667,0,0,4.16667,0,0)">
        <g id="Layer-1" serif:id="Layer 1">
            <g>
                <g transform="matrix(1,0,0,1,44.3144,46.7795)">
                    <path d="M0,20.611C0.184,20.297 0.262,20.181 0.324,20.056C2.1,16.438 3.614,12.714 4.854,8.88C6.619,3.424 8.41,-2.025 8.841,-7.801C8.954,-9.317 8.904,-10.8 8.313,-12.225C7.843,-13.36 7.09,-13.736 5.901,-13.396C5.534,-13.292 5.17,-13.142 4.837,-12.954C2.84,-11.83 1.642,-9.994 0.636,-8.037C-1.514,-3.854 -1.951,0.719 -2.206,5.309C-2.391,8.65 -1.933,11.951 -1.286,15.22C-0.94,16.967 -0.463,18.689 0,20.611M28.268,23.184C28.327,23.181 28.387,23.177 28.446,23.174C28.846,21.251 29.284,19.335 29.637,17.404C30.328,13.613 31.016,9.821 31.622,6.016C32.13,2.824 32.538,-0.384 32.957,-3.59C33.374,-6.787 33.704,-9.996 33.572,-13.224C33.534,-14.168 33.243,-15.112 32.988,-16.034C32.652,-17.251 31.706,-17.409 30.708,-16.844C29.96,-16.42 29.249,-15.829 28.71,-15.161C27.054,-13.109 26.16,-10.669 25.435,-8.169C24.695,-5.622 24.329,-3.005 24.349,-0.363C24.371,2.512 24.412,5.401 24.706,8.256C25.055,11.638 25.761,14.975 26.725,18.245C27.212,19.899 27.752,21.538 28.268,23.184M36.595,43.068C33.309,38.212 30.681,33.111 28.434,27.641C28.304,27.94 28.215,28.136 28.133,28.334C27.234,30.484 26.116,32.505 24.612,34.298C22.617,36.677 20.034,38.036 17.036,38.724C12.57,39.748 9.046,38.19 6.149,34.849C4.077,32.46 2.532,29.737 1.146,26.915C0.715,26.039 0.299,25.155 -0.143,24.236C-0.931,25.441 -1.703,26.617 -2.47,27.796C-4.779,31.343 -7.399,34.632 -10.564,37.462C-12.502,39.194 -14.717,40.502 -17.088,41.528C-17.621,41.758 -18.305,41.665 -18.918,41.659C-19.047,41.658 -19.172,41.386 -19.299,41.239C-19.143,41.137 -18.998,41 -18.827,40.942C-18.589,40.861 -18.312,40.885 -18.086,40.786C-14.268,39.115 -11.101,36.572 -8.494,33.362C-6.763,31.23 -5.165,28.986 -3.578,26.742C-2.677,25.466 -1.899,24.1 -1.111,22.748C-0.966,22.501 -0.93,22.088 -1.027,21.817C-2.141,18.698 -2.782,15.477 -3.273,12.21C-3.704,9.343 -3.819,6.466 -3.612,3.593C-3.328,-0.34 -2.842,-4.254 -1.177,-7.903C-0.397,-9.611 0.527,-11.237 1.879,-12.563C2.424,-13.098 3.04,-13.595 3.702,-13.973C6.095,-15.34 9.064,-14.089 9.934,-11.451C10.497,-9.742 10.45,-7.99 10.251,-6.28C9.43,0.787 7.169,7.478 4.614,14.066C3.547,16.815 2.201,19.455 0.999,22.152C0.906,22.362 0.863,22.666 0.942,22.868C2.505,26.843 4.469,30.6 7.186,33.919C8.477,35.496 9.944,36.923 11.897,37.625C13.665,38.261 15.505,38.481 17.383,37.984C20.66,37.115 22.873,34.926 24.655,32.197C25.918,30.264 26.782,28.142 27.51,25.964C27.581,25.752 27.533,25.463 27.451,25.244C25.743,20.661 24.456,15.965 23.644,11.142C22.974,7.166 22.691,3.162 22.869,-0.866C23.082,-5.67 23.972,-10.311 26.364,-14.567C27.027,-15.746 27.867,-16.768 28.94,-17.59C30.203,-18.556 31.41,-18.483 32.725,-17.6C34.206,-16.606 34.871,-15.166 34.955,-13.521C35.063,-11.427 34.981,-9.318 34.871,-7.221C34.775,-5.381 34.558,-3.545 34.339,-1.713C34.105,0.242 33.835,2.195 33.531,4.141C33.14,6.635 32.725,9.127 32.273,11.612C31.451,16.133 30.694,20.67 29.327,25.074C29.247,25.334 29.228,25.686 29.339,25.921C31.04,29.522 32.707,33.141 34.514,36.689C35.443,38.514 36.632,40.207 37.764,42.059C38.898,40.841 39.95,39.706 41.008,38.576C43.766,35.629 46.057,32.347 48.08,28.859C50.765,24.232 52.609,19.286 53.666,14.066C54.235,11.254 54.643,8.393 54.873,5.534C55.119,2.495 55.241,-0.576 55.11,-3.62C54.869,-9.241 53.959,-14.769 51.682,-19.967C50.695,-22.219 49.526,-24.4 48.323,-26.548C46.543,-29.731 43.79,-31.94 40.753,-33.856C37.682,-35.793 34.325,-36.618 30.733,-36.737C26.261,-36.886 22.146,-35.549 18.112,-33.833C13.127,-31.713 8.644,-28.795 4.554,-25.26C0.999,-22.189 -2.284,-18.853 -5.205,-15.168C-5.658,-14.597 -6.215,-14.442 -6.61,-14.767C-7.157,-15.218 -7.234,-15.781 -6.736,-16.368C-5.401,-17.94 -4.11,-19.56 -2.663,-21.026C-0.564,-23.152 1.612,-25.207 3.836,-27.204C7.035,-30.077 10.664,-32.324 14.492,-34.263C17.815,-35.947 21.231,-37.401 24.915,-38.042C30.016,-38.929 34.999,-38.6 39.584,-35.928C42.88,-34.006 45.71,-31.536 48.015,-28.449C51.963,-23.163 54.489,-17.278 55.808,-10.835C56.727,-6.345 56.93,-1.807 56.816,2.753C56.667,8.781 55.864,14.708 53.981,20.463C51.891,26.851 48.61,32.575 44.274,37.685C42.662,39.584 40.869,41.328 39.158,43.143C39.057,43.25 38.958,43.36 38.772,43.561C40.091,45.152 41.402,46.738 42.719,48.32C42.925,48.567 43.155,48.795 43.37,49.037C43.971,49.715 43.996,49.994 43.474,50.429C42.905,50.903 42.579,50.436 42.261,50.075C40.686,48.287 39.121,46.49 37.519,44.656C36.8,45.25 36.011,45.974 35.148,46.596C33.041,48.113 30.942,49.649 28.763,51.058C22.975,54.801 16.674,57.33 9.926,58.72C6.348,59.457 2.729,59.54 -0.912,59.299C-4.846,59.038 -8.619,58.117 -12.27,56.681C-15.394,55.453 -18.392,53.963 -21.107,51.968C-24.397,49.55 -27.104,46.602 -28.85,42.882C-30.336,39.716 -31.466,36.417 -32.077,32.955C-32.734,29.23 -32.804,25.472 -32.679,21.712C-32.521,17.004 -31.734,12.388 -30.61,7.811C-29.69,4.069 -28.463,0.44 -26.978,-3.101C-25.108,-7.558 -22.548,-11.585 -19.157,-15.061C-18.754,-15.475 -18.419,-15.957 -18.068,-16.419C-17.821,-16.743 -17.572,-16.799 -17.261,-16.512C-17.073,-16.338 -16.831,-16.211 -16.678,-16.013C-16.45,-15.719 -16.306,-15.399 -16.622,-15.035C-17.228,-14.336 -17.76,-13.568 -18.406,-12.912C-21.269,-10.008 -23.319,-6.576 -24.986,-2.896C-27.423,2.488 -28.965,8.142 -30.028,13.943C-30.854,18.454 -31.02,23.005 -30.894,27.569C-30.743,33.025 -29.468,38.23 -27.07,43.137C-25.969,45.388 -24.535,47.439 -22.723,49.182C-21,50.84 -19.086,52.264 -17.015,53.471C-13.371,55.594 -9.525,57.191 -5.334,57.819C-0.713,58.512 3.906,58.57 8.517,57.657C15.488,56.277 21.869,53.496 27.864,49.726C30.843,47.853 33.596,45.707 36.23,43.392C36.342,43.293 36.453,43.194 36.595,43.068" style="fill:rgb(0,0,255);fill-rule:nonzero;"/>
                </g>
                <g transform="matrix(1,0,0,1,44.3144,46.7795)">
                    <path d="M35.936,42.984C32.962,38.534 30.528,33.877 28.426,28.921C27.537,30.97 26.44,32.897 24.995,34.619C22.928,37.085 20.254,38.498 17.148,39.211C12.483,40.281 8.797,38.666 5.771,35.177C3.671,32.755 2.102,29.996 0.697,27.135C0.392,26.515 0.094,25.89 -0.211,25.252C-0.831,26.2 -1.442,27.133 -2.051,28.069C-4.384,31.653 -7.033,34.975 -10.231,37.835C-12.209,39.603 -14.469,40.94 -16.889,41.987L-16.89,41.987C-17.483,42.243 -18.241,42.166 -18.922,42.159C-19.072,42.158 -19.239,42.097 -19.388,41.948C-19.484,41.851 -19.582,41.677 -19.677,41.566C-19.772,41.457 -19.814,41.312 -19.794,41.169C-19.774,41.027 -19.693,40.899 -19.573,40.821C-19.382,40.696 -19.197,40.54 -18.988,40.469C-18.862,40.426 -18.728,40.403 -18.594,40.385C-18.488,40.371 -18.38,40.369 -18.287,40.328C-14.543,38.689 -11.438,36.194 -8.882,33.047C-7.158,30.923 -5.567,28.688 -3.986,26.454C-3.094,25.189 -2.324,23.836 -1.543,22.496L-1.542,22.495C-1.463,22.36 -1.445,22.134 -1.498,21.985C-2.623,18.836 -3.272,15.583 -3.767,12.284C-4.204,9.381 -4.32,6.467 -4.111,3.557C-3.822,-0.435 -3.322,-4.407 -1.632,-8.111C-0.826,-9.874 0.133,-11.551 1.529,-12.92C2.104,-13.485 2.755,-14.008 3.454,-14.407C6.123,-15.932 9.439,-14.549 10.409,-11.608C10.995,-9.828 10.955,-8.003 10.748,-6.222C9.922,0.887 7.65,7.619 5.08,14.247C4.01,17.003 2.661,19.651 1.456,22.355C1.413,22.453 1.371,22.592 1.408,22.686C2.951,26.612 4.889,30.324 7.573,33.602C8.807,35.109 10.2,36.484 12.066,37.154C13.739,37.756 15.479,37.971 17.255,37.501C20.406,36.665 22.523,34.547 24.236,31.924C25.476,30.027 26.321,27.943 27.036,25.805C27.074,25.691 27.027,25.537 26.983,25.419L26.982,25.419C25.263,20.806 23.968,16.079 23.151,11.225C22.475,7.214 22.19,3.175 22.369,-0.888C22.586,-5.771 23.497,-10.486 25.928,-14.812C26.625,-16.051 27.509,-17.123 28.636,-17.987L28.636,-17.987C29.371,-18.549 30.093,-18.797 30.819,-18.788C31.531,-18.779 32.254,-18.519 33.004,-18.015C34.627,-16.925 35.362,-15.35 35.454,-13.547C35.563,-11.435 35.481,-9.309 35.37,-7.195C35.274,-5.344 35.056,-3.497 34.835,-1.654C34.601,0.307 34.33,2.266 34.025,4.218C33.633,6.716 33.218,9.212 32.765,11.701C31.939,16.242 31.178,20.798 29.805,25.221C29.759,25.371 29.727,25.573 29.791,25.707C31.49,29.304 33.155,32.919 34.96,36.462C35.788,38.091 36.827,39.613 37.844,41.239C38.811,40.2 39.725,39.215 40.643,38.234C43.375,35.315 45.644,32.063 47.648,28.608C50.305,24.029 52.13,19.133 53.176,13.967C53.741,11.174 54.146,8.333 54.375,5.494C54.619,2.475 54.741,-0.575 54.61,-3.599C54.372,-9.158 53.476,-14.626 51.224,-19.766C50.244,-22.003 49.082,-24.17 47.887,-26.304C46.148,-29.412 43.452,-31.562 40.486,-33.433C37.492,-35.321 34.218,-36.121 30.716,-36.237C26.319,-36.384 22.274,-35.06 18.308,-33.373C13.371,-31.273 8.931,-28.383 4.881,-24.882C1.35,-21.831 -1.912,-18.518 -4.813,-14.857C-5.485,-14.01 -6.342,-13.899 -6.928,-14.381L-6.928,-14.381C-7.321,-14.705 -7.526,-15.081 -7.563,-15.47C-7.599,-15.855 -7.472,-16.273 -7.117,-16.692C-5.774,-18.273 -4.475,-19.902 -3.019,-21.377C-0.913,-23.51 1.27,-25.572 3.502,-27.576C6.734,-30.478 10.399,-32.75 14.266,-34.709C17.633,-36.415 21.096,-37.885 24.829,-38.535C30.048,-39.442 35.145,-39.094 39.836,-36.36C43.19,-34.404 46.07,-31.89 48.416,-28.748C52.408,-23.402 54.964,-17.451 56.298,-10.935C57.224,-6.408 57.431,-1.832 57.316,2.765C57.166,8.842 56.354,14.817 54.456,20.618C52.346,27.069 49.033,32.849 44.655,38.009C43.038,39.914 41.239,41.665 39.522,43.486C39.494,43.516 39.466,43.546 39.436,43.578C40.66,45.056 41.879,46.53 43.103,48C43.306,48.243 43.532,48.467 43.744,48.705L43.744,48.705C44.259,49.287 44.395,49.702 44.326,50.044C44.277,50.292 44.118,50.543 43.794,50.813C43.508,51.052 43.249,51.128 43.025,51.13C42.793,51.132 42.582,51.052 42.39,50.913C42.208,50.781 42.044,50.585 41.886,50.405C40.416,48.737 38.955,47.061 37.465,45.354C36.84,45.885 36.166,46.479 35.44,47.002C33.326,48.524 31.22,50.064 29.035,51.478C23.194,55.255 16.836,57.807 10.027,59.21C6.405,59.956 2.741,60.042 -0.945,59.798C-4.931,59.533 -8.754,58.601 -12.453,57.146C-15.617,55.902 -18.653,54.392 -21.403,52.371C-24.761,49.903 -27.521,46.891 -29.303,43.094C-30.807,39.888 -31.951,36.548 -32.569,33.042C-33.232,29.283 -33.305,25.49 -33.179,21.695C-33.02,16.953 -32.228,12.302 -31.096,7.692C-30.169,3.924 -28.934,0.271 -27.439,-3.294C-25.545,-7.81 -22.95,-11.889 -19.515,-15.41C-19.126,-15.809 -18.805,-16.276 -18.466,-16.721L-18.466,-16.722C-18.242,-17.015 -17.997,-17.156 -17.758,-17.19C-17.505,-17.225 -17.22,-17.155 -16.922,-16.879L-16.921,-16.879C-16.713,-16.686 -16.452,-16.538 -16.283,-16.319C-16.071,-16.046 -15.932,-15.748 -15.94,-15.44C-15.945,-15.208 -16.024,-14.961 -16.244,-14.707C-16.857,-14 -17.396,-13.225 -18.05,-12.561C-20.871,-9.7 -22.888,-6.316 -24.531,-2.69C-26.951,2.657 -28.481,8.272 -29.536,14.033C-30.356,18.51 -30.519,23.026 -30.394,27.555C-30.245,32.939 -28.987,38.075 -26.621,42.917C-25.546,45.116 -24.146,47.119 -22.376,48.822C-20.682,50.452 -18.8,51.852 -16.763,53.039C-13.174,55.13 -9.388,56.706 -5.26,57.325C-0.696,58.009 3.866,58.068 8.42,57.167C15.33,55.799 21.655,53.04 27.598,49.303C30.554,47.444 33.286,45.314 35.899,43.017C35.912,43.006 35.924,42.995 35.936,42.984ZM36.595,43.068L36.927,43.442C36.785,43.568 36.673,43.667 36.561,43.767L36.56,43.768C33.906,46.1 31.132,48.262 28.13,50.149C22.083,53.952 15.646,56.755 8.614,58.147C5.055,58.852 1.491,58.987 -2.075,58.7C-1.678,58.74 -1.279,58.774 -0.879,58.8C2.717,59.038 6.291,58.958 9.825,58.23C16.512,56.853 22.756,54.347 28.491,50.638C30.663,49.234 32.755,47.702 34.856,46.19C35.709,45.575 36.489,44.858 37.201,44.271C37.409,44.098 37.717,44.123 37.896,44.327C39.497,46.161 41.062,47.957 42.636,49.744C42.723,49.843 42.809,49.95 42.902,50.04C42.941,50.077 42.977,50.115 43.022,50.13C43.031,50.133 43.037,50.123 43.048,50.117C43.082,50.101 43.116,50.076 43.154,50.045C43.211,49.997 43.26,49.953 43.299,49.909C43.313,49.893 43.331,49.867 43.341,49.853C43.332,49.831 43.309,49.777 43.287,49.741C43.221,49.633 43.123,49.512 42.996,49.369C42.778,49.123 42.544,48.891 42.335,48.64L42.335,48.64C41.018,47.058 39.706,45.471 38.387,43.88C38.227,43.687 38.235,43.405 38.405,43.221C38.593,43.019 38.693,42.908 38.794,42.8C40.499,40.991 42.286,39.254 43.893,37.361C48.187,32.301 51.436,26.633 53.506,20.308C55.374,14.599 56.168,8.72 56.316,2.741C56.429,-1.782 56.23,-6.282 55.318,-10.735C54.263,-15.889 52.427,-20.682 49.697,-25.093C50.571,-23.48 51.406,-21.843 52.14,-20.168C54.442,-14.912 55.366,-9.324 55.61,-3.641C55.741,-0.577 55.619,2.515 55.371,5.574C55.14,8.453 54.729,11.334 54.156,14.165C53.088,19.439 51.225,24.435 48.512,29.11C46.47,32.631 44.157,35.943 41.373,38.918C40.315,40.047 39.264,41.182 38.13,42.4C38.023,42.514 37.869,42.572 37.714,42.556C37.558,42.541 37.419,42.453 37.337,42.32C36.198,40.456 35.003,38.752 34.068,36.916C32.259,33.363 30.59,29.74 28.887,26.135C28.729,25.799 28.735,25.298 28.849,24.927L28.849,24.926C30.21,20.541 30.963,16.024 31.781,11.523C32.232,9.042 32.647,6.554 33.037,4.064C33.34,2.124 33.609,0.177 33.843,-1.772C34.06,-3.593 34.276,-5.418 34.372,-7.247C34.481,-9.327 34.563,-11.419 34.456,-13.495C34.402,-14.551 34.086,-15.515 33.428,-16.307C33.443,-16.262 33.457,-16.215 33.47,-16.167C33.735,-15.209 34.032,-14.226 34.072,-13.244C34.205,-9.988 33.873,-6.75 33.453,-3.525C33.033,-0.315 32.625,2.898 32.116,6.095C31.509,9.903 30.821,13.699 30.129,17.494C29.775,19.429 29.336,21.349 28.936,23.276C28.889,23.498 28.698,23.662 28.471,23.673C28.412,23.676 28.352,23.68 28.293,23.683L28.268,23.184L27.791,23.334C27.274,21.685 26.733,20.043 26.245,18.386C25.273,15.087 24.561,11.72 24.209,8.307C23.913,5.437 23.871,2.532 23.849,-0.359C23.829,-3.05 24.201,-5.715 24.955,-8.308C25.698,-10.872 26.623,-13.371 28.321,-15.475C28.898,-16.191 29.66,-16.825 30.462,-17.279C30.838,-17.492 31.211,-17.615 31.559,-17.647C31.306,-17.737 31.056,-17.785 30.807,-17.788C30.285,-17.795 29.772,-17.597 29.244,-17.193C28.225,-16.413 27.429,-15.441 26.8,-14.322C24.447,-10.136 23.578,-5.569 23.369,-0.844C23.192,3.149 23.473,7.118 24.137,11.059C24.944,15.851 26.223,20.516 27.919,25.069C28.039,25.389 28.088,25.813 27.984,26.123C27.243,28.341 26.36,30.502 25.074,32.47C24.258,33.72 23.353,34.858 22.304,35.817C22.996,35.29 23.639,34.68 24.229,33.977C25.7,32.223 26.792,30.245 27.672,28.141C27.754,27.942 27.844,27.743 27.975,27.442C28.056,27.257 28.238,27.139 28.439,27.141C28.64,27.143 28.82,27.265 28.896,27.451C31.13,32.889 33.742,37.96 37.009,42.788L36.595,43.068ZM12.358,38.304C12.147,38.24 11.937,38.171 11.728,38.096C9.688,37.362 8.147,35.883 6.799,34.236C4.049,30.876 2.059,27.075 0.477,23.051L0.476,23.05C0.355,22.74 0.399,22.272 0.542,21.95L0.542,21.948C1.741,19.259 3.084,16.627 4.148,13.885C6.688,7.337 8.938,0.687 9.754,-6.338C9.945,-7.977 9.999,-9.656 9.459,-11.294C9.275,-11.852 8.985,-12.341 8.622,-12.745C8.676,-12.642 8.727,-12.533 8.775,-12.416C9.397,-10.917 9.458,-9.359 9.34,-7.764C8.906,-1.948 7.107,3.54 5.33,9.034C4.082,12.891 2.559,16.637 0.773,20.276L0.772,20.278C0.707,20.41 0.625,20.533 0.431,20.864L0,20.611L-0.486,20.728C-0.951,18.799 -1.429,17.071 -1.776,15.317C-2.432,12.007 -2.893,8.664 -2.705,5.281C-2.446,0.621 -1.991,-4.019 0.191,-8.266C1.242,-10.309 2.506,-12.216 4.591,-13.39C4.958,-13.597 5.36,-13.762 5.764,-13.877C5.957,-13.932 6.141,-13.97 6.315,-13.993C5.535,-14.107 4.71,-13.973 3.95,-13.539C3.325,-13.182 2.744,-12.711 2.229,-12.206C0.921,-10.923 0.032,-9.347 -0.722,-7.695C-2.362,-4.101 -2.834,-0.245 -3.113,3.629C-3.318,6.465 -3.204,9.305 -2.779,12.136C-2.292,15.371 -1.659,18.56 -0.556,21.649C-0.415,22.042 -0.469,22.642 -0.679,23C-1.474,24.364 -2.26,25.743 -3.17,27.03L-3.17,27.031C-4.763,29.284 -6.368,31.537 -8.106,33.677C-10.73,36.908 -13.912,39.475 -17.738,41.179C-17.579,41.163 -17.427,41.13 -17.286,41.069C-14.965,40.064 -12.795,38.785 -10.897,37.089C-7.765,34.289 -5.174,31.033 -2.889,27.523C-2.122,26.344 -1.35,25.168 -0.561,23.962C-0.463,23.811 -0.29,23.725 -0.11,23.737C0.07,23.749 0.229,23.857 0.308,24.019C0.749,24.937 1.164,25.82 1.595,26.694C2.962,29.478 4.483,32.165 6.527,34.521C8.223,36.478 10.143,37.799 12.358,38.304ZM43.166,-32.827C41.971,-33.815 40.692,-34.703 39.332,-35.496C34.853,-38.106 29.984,-38.416 25.001,-37.549C21.366,-36.917 17.997,-35.479 14.718,-33.817C10.929,-31.898 7.336,-29.676 4.17,-26.832C1.954,-24.842 -0.215,-22.794 -2.307,-20.675C-3.745,-19.218 -5.028,-17.607 -6.355,-16.045C-6.498,-15.875 -6.582,-15.719 -6.567,-15.563C-6.553,-15.411 -6.446,-15.28 -6.292,-15.153C-6.206,-15.082 -6.098,-15.091 -5.991,-15.141C-5.855,-15.204 -5.722,-15.321 -5.597,-15.479C-2.656,-19.188 0.648,-22.547 4.227,-25.638C8.357,-29.207 12.883,-32.153 17.916,-34.293C22.018,-36.038 26.203,-37.388 30.75,-37.237C34.432,-37.115 37.872,-36.264 41.02,-34.279C41.755,-33.815 42.473,-33.334 43.166,-32.827ZM-19.492,52.481C-20.757,51.595 -21.953,50.617 -23.07,49.542C-24.924,47.759 -26.392,45.66 -27.519,43.357C-29.949,38.385 -31.241,33.111 -31.394,27.583C-31.521,22.984 -31.352,18.398 -30.52,13.853C-29.449,8.012 -27.895,2.319 -25.441,-3.102C-23.75,-6.836 -21.667,-10.316 -18.762,-13.263C-18.124,-13.911 -17.599,-14.672 -17,-15.363C-16.886,-15.493 -16.991,-15.601 -17.073,-15.707L-17.074,-15.707C-17.21,-15.884 -17.433,-15.99 -17.6,-16.145C-17.608,-16.152 -17.617,-16.159 -17.626,-16.166C-17.642,-16.15 -17.658,-16.132 -17.67,-16.116C-18.033,-15.638 -18.382,-15.141 -18.799,-14.712L-18.799,-14.712C-22.146,-11.281 -24.671,-7.306 -26.517,-2.908C-27.992,0.609 -29.211,4.214 -30.124,7.93C-31.24,12.474 -32.022,17.055 -32.179,21.729C-32.303,25.454 -32.236,29.177 -31.585,32.868C-30.981,36.286 -29.865,39.544 -28.397,42.67C-26.687,46.313 -24.033,49.197 -20.811,51.565C-20.378,51.883 -19.938,52.188 -19.492,52.481ZM28.277,21.558C28.58,20.145 28.886,18.734 29.145,17.314C29.835,13.527 30.523,9.739 31.128,5.937C31.635,2.75 32.043,-0.453 32.461,-3.655C32.875,-6.823 33.203,-10.004 33.072,-13.204C33.036,-14.11 32.751,-15.016 32.506,-15.901C32.396,-16.299 32.217,-16.549 31.953,-16.628C31.661,-16.716 31.315,-16.613 30.954,-16.409C30.26,-16.015 29.599,-15.467 29.099,-14.847C27.485,-12.847 26.622,-10.466 25.915,-8.03C25.189,-5.529 24.829,-2.96 24.849,-0.367C24.871,2.492 24.911,5.365 25.203,8.205C25.549,11.556 26.249,14.863 27.205,18.104C27.545,19.26 27.911,20.409 28.277,21.558ZM0.173,19.223C1.81,15.819 3.215,12.321 4.378,8.726C6.131,3.308 7.914,-2.102 8.342,-7.838C8.45,-9.275 8.411,-10.683 7.851,-12.034C7.672,-12.465 7.458,-12.767 7.157,-12.914C6.857,-13.061 6.489,-13.044 6.038,-12.915L6.037,-12.915C5.708,-12.822 5.382,-12.687 5.083,-12.519L5.082,-12.518C3.174,-11.444 2.042,-9.679 1.081,-7.808C-1.037,-3.689 -1.456,0.817 -1.707,5.337C-1.889,8.636 -1.434,11.895 -0.796,15.123C-0.529,16.47 -0.184,17.802 0.173,19.223Z" style="fill:rgb(0,0,255);"/>
                </g>
            </g>
        </g>
    </g>
</svg>
